<svg width="184" height="262" viewBox="0 0 184 262" fill="none" xmlns="http://www.w3.org/2000/svg">
<path d="M37.192 248.432C33.928 248.432 31.432 247.424 29.704 245.408C28.008 243.392 27.064 240.624 26.872 237.104L31.672 235.808C31.832 238.304 32.312 240.32 33.112 241.856C33.944 243.392 35.304 244.16 37.192 244.16C38.6 244.16 39.656 243.776 40.36 243.008C41.096 242.208 41.464 241.072 41.464 239.6C41.464 238 41.128 236.672 40.456 235.616C39.784 234.56 38.712 233.392 37.24 232.112L30.712 226.352C29.4 225.2 28.44 223.968 27.832 222.656C27.256 221.312 26.968 219.68 26.968 217.76C26.968 214.912 27.784 212.704 29.416 211.136C31.048 209.568 33.272 208.784 36.088 208.784C39.16 208.784 41.48 209.6 43.048 211.232C44.616 212.864 45.56 215.392 45.88 218.816L41.272 220.064C41.112 217.792 40.664 216.048 39.928 214.832C39.224 213.584 37.944 212.96 36.088 212.96C34.712 212.96 33.656 213.328 32.92 214.064C32.184 214.768 31.816 215.824 31.816 217.232C31.816 218.384 32.008 219.36 32.392 220.16C32.776 220.928 33.432 221.712 34.36 222.512L40.936 228.272C42.632 229.776 43.976 231.408 44.968 233.168C45.992 234.928 46.504 236.928 46.504 239.168C46.504 242.016 45.64 244.272 43.912 245.936C42.184 247.6 39.944 248.432 37.192 248.432ZM60.4555 248.432C56.6155 248.432 53.9115 247.296 52.3435 245.024C50.7755 242.72 49.9915 239.552 49.9915 235.52V221.792C49.9915 217.536 50.7595 214.304 52.2955 212.096C53.8315 209.888 56.5515 208.784 60.4555 208.784C63.9435 208.784 66.4395 209.728 67.9435 211.616C69.4795 213.504 70.2475 216.288 70.2475 219.968V223.04H65.1115V220.304C65.1115 218.512 65.0315 217.136 64.8715 216.176C64.7115 215.216 64.2955 214.448 63.6235 213.872C62.9835 213.296 61.9435 213.008 60.5035 213.008C59.0315 213.008 57.9275 213.328 57.1915 213.968C56.4875 214.576 56.0235 215.44 55.7995 216.56C55.5755 217.648 55.4635 219.12 55.4635 220.976V236.384C55.4635 238.368 55.6235 239.92 55.9435 241.04C56.2635 242.16 56.7755 242.96 57.4795 243.44C58.2155 243.92 59.2235 244.16 60.5035 244.16C61.8795 244.16 62.9035 243.856 63.5755 243.248C64.2475 242.64 64.6635 241.808 64.8235 240.752C65.0155 239.696 65.1115 238.256 65.1115 236.432V233.552H70.2475V236.432C70.2475 240.304 69.5115 243.28 68.0395 245.36C66.5995 247.408 64.0715 248.432 60.4555 248.432ZM85.3506 248.432C81.5426 248.432 78.8066 247.36 77.1426 245.216C75.5106 243.04 74.6946 239.904 74.6946 235.808V221.072C74.6946 217.04 75.5266 213.984 77.1906 211.904C78.8546 209.824 81.5746 208.784 85.3506 208.784C89.1266 208.784 91.8306 209.84 93.4626 211.952C95.1266 214.032 95.9586 217.072 95.9586 221.072V235.856C95.9586 239.888 95.1266 242.992 93.4626 245.168C91.7986 247.344 89.0946 248.432 85.3506 248.432ZM85.3506 244.16C87.3666 244.16 88.7266 243.568 89.4306 242.384C90.1346 241.2 90.4866 239.408 90.4866 237.008V219.968C90.4866 217.6 90.1346 215.856 89.4306 214.736C88.7266 213.584 87.3666 213.008 85.3506 213.008C83.3026 213.008 81.9266 213.584 81.2226 214.736C80.5186 215.856 80.1666 217.6 80.1666 219.968V237.008C80.1666 239.408 80.5186 241.2 81.2226 242.384C81.9266 243.568 83.3026 244.16 85.3506 244.16ZM111.226 248.432C107.418 248.432 104.682 247.36 103.018 245.216C101.386 243.04 100.57 239.904 100.57 235.808V221.072C100.57 217.04 101.402 213.984 103.066 211.904C104.73 209.824 107.45 208.784 111.226 208.784C115.002 208.784 117.706 209.84 119.338 211.952C121.002 214.032 121.834 217.072 121.834 221.072V235.856C121.834 239.888 121.002 242.992 119.338 245.168C117.674 247.344 114.97 248.432 111.226 248.432ZM111.226 244.16C113.242 244.16 114.602 243.568 115.306 242.384C116.01 241.2 116.362 239.408 116.362 237.008V219.968C116.362 217.6 116.01 215.856 115.306 214.736C114.602 213.584 113.242 213.008 111.226 213.008C109.178 213.008 107.802 213.584 107.098 214.736C106.394 215.856 106.042 217.6 106.042 219.968V237.008C106.042 239.408 106.394 241.2 107.098 242.384C107.802 243.568 109.178 244.16 111.226 244.16ZM127.165 209.12H132.589V244.112H142.525V248H127.165V209.12ZM155.411 248.432C152.147 248.432 149.651 247.424 147.923 245.408C146.227 243.392 145.283 240.624 145.091 237.104L149.891 235.808C150.051 238.304 150.531 240.32 151.331 241.856C152.163 243.392 153.523 244.16 155.411 244.16C156.819 244.16 157.875 243.776 158.579 243.008C159.315 242.208 159.683 241.072 159.683 239.6C159.683 238 159.347 236.672 158.675 235.616C158.003 234.56 156.931 233.392 155.459 232.112L148.931 226.352C147.619 225.2 146.659 223.968 146.051 222.656C145.475 221.312 145.187 219.68 145.187 217.76C145.187 214.912 146.003 212.704 147.635 211.136C149.267 209.568 151.491 208.784 154.307 208.784C157.379 208.784 159.699 209.6 161.267 211.232C162.835 212.864 163.779 215.392 164.099 218.816L159.491 220.064C159.331 217.792 158.883 216.048 158.147 214.832C157.443 213.584 156.163 212.96 154.307 212.96C152.931 212.96 151.875 213.328 151.139 214.064C150.403 214.768 150.035 215.824 150.035 217.232C150.035 218.384 150.227 219.36 150.611 220.16C150.995 220.928 151.651 221.712 152.579 222.512L159.155 228.272C160.851 229.776 162.195 231.408 163.187 233.168C164.211 234.928 164.723 236.928 164.723 239.168C164.723 242.016 163.859 244.272 162.131 245.936C160.403 247.6 158.163 248.432 155.411 248.432Z" fill="#FCF9EA"/>
<path d="M140.282 133.614C139.822 133.614 139.362 133.432 139.012 133.068C138.31 132.339 138.31 131.158 139.012 130.43C151.569 117.395 158.484 100.064 158.484 81.6301C158.484 63.1964 151.569 45.8654 139.011 32.8304C126.454 19.795 109.758 12.6164 92 12.6164C74.2414 12.6164 57.5456 19.7954 44.9887 32.8304C19.0666 59.7386 19.0666 103.522 44.9887 130.43C45.6905 131.158 45.6905 132.339 44.9887 133.068C44.2872 133.797 43.1494 133.796 42.4475 133.068C15.1243 104.705 15.1243 58.5553 42.4475 30.1922C55.6833 16.4529 73.2816 8.88597 92 8.88597C110.718 8.88597 128.317 16.4529 141.552 30.1925C154.789 43.9319 162.078 62.1996 162.078 81.6301C162.078 101.061 154.789 119.328 141.552 133.068C141.202 133.432 140.742 133.614 140.282 133.614Z" fill="white"/>
<path d="M124.11 116.827C123.65 116.827 123.19 116.645 122.839 116.281C122.138 115.552 122.138 114.371 122.84 113.643C131.078 105.093 135.615 93.7247 135.615 81.6316C135.615 69.5386 131.078 58.1688 122.84 49.6175C105.835 31.9686 78.1655 31.9686 61.1606 49.6175C52.9226 58.1688 48.3855 69.5386 48.3855 81.6316C48.3855 93.7247 52.9226 105.093 61.1606 113.643C61.8624 114.371 61.8624 115.552 61.1609 116.281C60.4591 117.009 59.3213 117.009 58.6198 116.281C49.7026 107.026 44.7917 94.7211 44.7917 81.6316C44.7917 68.5421 49.7026 56.2357 58.6194 46.9797C77.0259 27.8767 106.975 27.8767 125.381 46.9797C134.298 56.2357 139.209 68.5421 139.209 81.6316C139.209 94.7211 134.298 107.027 125.381 116.281C125.029 116.645 124.57 116.827 124.11 116.827Z" fill="white"/>
<path d="M81.2188 163.458C80.2265 163.458 79.4219 162.623 79.4219 161.593V79.5224C79.4219 78.4924 80.2265 77.6572 81.2188 77.6572C82.211 77.6572 83.0156 78.4924 83.0156 79.5224V161.593C83.0156 162.623 82.211 163.458 81.2188 163.458Z" fill="white"/>
<path d="M102.781 163.458C101.789 163.458 100.984 162.623 100.984 161.593V79.5224C100.984 78.4924 101.789 77.6572 102.781 77.6572C103.774 77.6572 104.578 78.4924 104.578 79.5224V161.593C104.578 162.623 103.774 163.458 102.781 163.458Z" fill="white"/>
<path d="M92 182.11C85.0644 182.11 79.4219 176.253 79.4219 169.054V161.593C79.4219 160.562 80.2265 159.727 81.2188 159.727H102.781C103.774 159.727 104.578 160.562 104.578 161.593V169.054C104.578 176.253 98.9356 182.11 92 182.11ZM83.0156 163.458V169.054C83.0156 174.196 87.046 178.38 92 178.38C96.954 178.38 100.984 174.196 100.984 169.054V163.458H83.0156Z" fill="white"/>
<path d="M102.781 81.3876H81.2187C80.6412 81.3876 80.0989 81.0996 79.7611 80.6128C79.4233 80.1264 79.3317 79.5011 79.5142 78.9326L90.2955 45.3584C90.5398 44.5966 91.2266 44.0829 92 44.0829C92.7734 44.0829 93.4601 44.5966 93.7045 45.3584L104.486 78.9326C104.669 79.5011 104.577 80.1267 104.239 80.6128C103.901 81.0993 103.359 81.3876 102.781 81.3876ZM83.7117 77.6572H100.288L92 51.8464L83.7117 77.6572Z" fill="white"/>
<path d="M66.8438 163.458H20.125C19.1328 163.458 18.3281 162.623 18.3281 161.593C18.3281 160.562 19.1328 159.727 20.125 159.727H66.8438C67.836 159.727 68.6406 160.562 68.6406 161.593C68.6406 162.623 67.836 163.458 66.8438 163.458Z" fill="white"/>
<path d="M163.875 163.458H117.156C116.164 163.458 115.359 162.623 115.359 161.593C115.359 160.562 116.164 159.727 117.156 159.727H163.875C164.868 159.727 165.672 160.562 165.672 161.593C165.672 162.623 164.868 163.458 163.875 163.458Z" fill="white"/>
<path d="M92 143.77H81.2188C80.2265 143.77 79.4219 142.936 79.4219 141.905C79.4219 140.875 80.2265 140.04 81.2188 140.04H92C92.9926 140.04 93.7969 140.875 93.7969 141.905C93.7969 142.936 92.9926 143.77 92 143.77Z" fill="white"/>
</svg>
